<?xml version="1.0" encoding="utf-8"?>
<!-- Generator: Adobe Illustrator 21.1.0, SVG Export Plug-In . SVG Version: 6.00 Build 0)  -->
<svg version="1.1" id="Слой_1" xmlns="http://www.w3.org/2000/svg" xmlns:xlink="http://www.w3.org/1999/xlink" x="0px" y="0px"
	 viewBox="0 0 240 240" style="enable-background:new 0 0 240 240;" xml:space="preserve">
<style type="text/css">
	.st0{fill:#538C26;}
	.st1{fill:#FEFEFD;}
	.st2{fill:#FEFEFE;}
	.st3{fill:#3A4FC9;}
	.st4{fill:#D8A065;}
	.st5{fill:#C0CBDC;}
	.st6{fill:#FDFDFD;}
	.st7{fill:#BFCADB;}
	.st8{fill:#FEFFFE;}
	.st9{fill:#FCFCFC;}
	.st10{fill:#3C6D1D;}
	.st11{fill:#7A1910;}
</style>
<g>
	<path class="st0" d="M0,0c80,0,160,0,240,0c0,80,0,160,0,240c-80,0-160,0-240,0C0,160,0,80,0,0z"/>
</g>
<g>
	<path class="st1" d="M167.5,47.5c-8,0-16,0-24,0c0-4,0-8,0-12c-4,0-8,0-12,0c0-4,0-8,0-12c12,0,24,0,36,0c0,4,0,8,0,12
		c4,0,8,0,12,0c0,4,0,8,0,12C175.5,47.5,171.5,47.5,167.5,47.5z"/>
</g>
<g>
	<path class="st2" d="M131.5,35.5c4,0,8,0,12,0c0,4,0,8,0,12s0,8,0,12s0,8,0,12c0,0.3,0,0.7,0,1c0,3.7,0,7.3,0,11c-4,0-8,0-12,0
		c0-4,0-8,0-12c-4,0-8,0-12,0c0-4,0-8,0-12c0-8,0-16,0-24C123.5,35.5,127.5,35.5,131.5,35.5z"/>
</g>
<g>
	<path class="st3" d="M131.5,35.5c4,0,8,0,12,0c0,4,0,8,0,12c-4,0-8,0-12,0C131.5,43.5,131.5,39.5,131.5,35.5z"/>
</g>
<g>
	<path class="st4" d="M143.5,47.5c8,0,16,0,24,0c0,8,0,16,0,24c-4,0-8,0-12,0c0-4,0-8,0-12c-4,0-8,0-12,0
		C143.5,55.5,143.5,51.5,143.5,47.5z"/>
</g>
<g>
	<path class="st3" d="M119.5,59.5c0,4,0,8,0,12c-4,0-8,0-12,0c0-4,0-8,0-12C111.5,59.5,115.5,59.5,119.5,59.5z"/>
</g>
<g>
	<path class="st5" d="M143.5,59.5c4,0,8,0,12,0c0,4,0,8,0,12c-4,0-8,0-12,0C143.5,67.5,143.5,63.5,143.5,59.5z"/>
</g>
<g>
	<path class="st6" d="M107.5,71.5c4,0,8,0,12,0c0,4,0,8,0,12c-4,0-8,0-12,0C107.5,79.5,107.5,75.5,107.5,71.5z"/>
</g>
<g>
	<path class="st7" d="M155.5,71.5c4,0,8,0,12,0s8,0,12,0c0,4,0,8,0,12c-8,0-16,0-24,0C155.5,79.5,155.5,75.5,155.5,71.5z"/>
</g>
<g>
	<path class="st3" d="M107.5,71.5c0,4,0,8,0,12c0,8,0,16,0,24c8,0,16,0,24,0c0,4,0,8,0,12c-4,0-8,0-12,0c0,8,0,16,0,24
		c-4,0-8,0-12,0c0-8,0-16,0-24c-4,0-8,0-12,0c0-16,0-32,0-48C99.5,71.5,103.5,71.5,107.5,71.5z"/>
</g>
<g>
	<path class="st3" d="M119.5,71.5c4,0,8,0,12,0c0,4,0,8,0,12c-4,0-8,0-12,0C119.5,79.5,119.5,75.5,119.5,71.5z"/>
</g>
<g>
	<path class="st6" d="M95.5,119.5c4,0,8,0,12,0c0,8,0,16,0,24c-4,0-8,0-12,0s-8,0-12,0c0-4,0-8,0-12c4,0,8,0,12,0
		C95.5,127.5,95.5,123.5,95.5,119.5z"/>
</g>
<g>
	<path class="st2" d="M131.5,119.5c4,0,8,0,12,0c0,4,0,8,0,12s0,8,0,12c-4,0-8,0-12,0s-8,0-12,0c0-8,0-16,0-24
		C123.5,119.5,127.5,119.5,131.5,119.5z"/>
</g>
<g>
	<path class="st7" d="M143.5,131.5c4,0,8,0,12,0c0,4,0,8,0,12c4,0,8,0,12,0c0,4,0,8,0,12c-8,0-16,0-24,0c-4,0-8,0-12,0c0-4,0-8,0-12
		c4,0,8,0,12,0C143.5,139.5,143.5,135.5,143.5,131.5z"/>
</g>
<g>
	<path class="st8" d="M59.5,143.5c0,8,0,16,0,24c0,4,0,8,0,12c-4,0-8,0-12,0c0-12,0-24,0-36C51.5,143.5,55.5,143.5,59.5,143.5z"/>
</g>
<g>
	<path class="st8" d="M107.5,143.5c4,0,8,0,12,0c0,4,0,8,0,12c-4,0-8,0-12,0C107.5,151.5,107.5,147.5,107.5,143.5z"/>
</g>
<g>
	<path class="st3" d="M59.5,143.5c8,0,16,0,24,0c0,8,0,16,0,24c-8,0-16,0-24,0C59.5,159.5,59.5,151.5,59.5,143.5z"/>
</g>
<g>
	<path class="st4" d="M83.5,143.5c4,0,8,0,12,0c0,4,0,8,0,12s0,8,0,12c-4,0-8,0-12,0C83.5,159.5,83.5,151.5,83.5,143.5z"/>
</g>
<g>
	<path class="st3" d="M95.5,143.5c4,0,8,0,12,0c0,4,0,8,0,12c-4,0-8,0-12,0C95.5,151.5,95.5,147.5,95.5,143.5z"/>
</g>
<g>
	<path class="st9" d="M95.5,155.5c4,0,8,0,12,0c0,4,0,8,0,12c-4,0-8,0-12,0C95.5,163.5,95.5,159.5,95.5,155.5z"/>
</g>
<g>
	<path class="st4" d="M143.5,155.5c8,0,16,0,24,0c4,0,8,0,12,0c0,4,0,8,0,12c-8,0-16,0-24,0c-4,0-8,0-12,0
		C143.5,163.5,143.5,159.5,143.5,155.5z"/>
</g>
<g>
	<path class="st3" d="M155.5,167.5c8,0,16,0,24,0c0,8,0,16,0,24c-8,0-16,0-24,0C155.5,183.5,155.5,175.5,155.5,167.5z"/>
</g>
<g>
	<path class="st6" d="M155.5,191.5c8,0,16,0,24,0c4,0,8,0,12,0c0,4,0,8,0,12c-12,0-24,0-36,0C155.5,199.5,155.5,195.5,155.5,191.5z"
		/>
</g>
<g>
	<path class="st10" d="M191.5,191.5c1,3.8,1.3,7.8,1,12c3.7,0,7.3,0,11,0c0,4,0,8,0,12c-56,0-112,0-168,0c0-4,0-8,0-12
		c40,0,80,0,120,0c12,0,24,0,36,0C191.5,199.5,191.5,195.5,191.5,191.5z"/>
</g>
<g>
	<path class="st4" d="M155.5,83.5c0-4,0-8,0-12c-4,0-8,0-12,0c0,0.3,0,0.7,0,1c0,3.7,0,7.3,0,11h1C148.2,83.5,151.8,83.5,155.5,83.5
		z"/>
	<path class="st4" d="M155.5,107.5c0-4,0-8,0-12c-4,0-8,0-12,0c0-3.7,0-7.3,0-11v-1c-4,0-8,0-12,0s-8,0-12,0s-8,0-12,0
		c0,8,0,16,0,24c8,0,16,0,24,0c0,4,0,8,0,12c4,0,8,0,12,0c7.7,0,15.3,0,23,0v-12C162.8,107.5,159.2,107.5,155.5,107.5z"/>
</g>
<path class="st11" d="M155.5,95.5c0-4,0-8,0-12c-0.6,0-1.2,0-1.8,0c-6.8,0-13.5,0-20.3,0h-2v1c0,2.6,0,5.3,0,7.9c0,1,0,2.1,0,3.1
	c4,0,8,0,12,0c0,4,0,8,0,12c7.7,0,15.3,0,23,0c0-4,0-8,0-12C162.8,95.5,159.2,95.5,155.5,95.5z"/>
</svg>
